<svg width="24" height="24" viewBox="0 0 24 24" fill="none" xmlns="http://www.w3.org/2000/svg">
<g clip-path="url(#clip0_4_143)">
<path d="M12 3.00003C17.392 3.00003 21.878 6.88003 22.819 12C21.879 17.12 17.392 21 12 21C6.60797 21 2.12197 17.12 1.18097 12C2.12097 6.88003 6.60797 3.00003 12 3.00003ZM12 19C14.0394 18.9996 16.0184 18.3069 17.6128 17.0352C19.2073 15.7635 20.3229 13.9883 20.777 12C20.3212 10.0133 19.2049 8.24004 17.6106 6.97006C16.0163 5.70008 14.0383 5.00856 12 5.00856C9.96167 5.00856 7.98366 5.70008 6.38935 6.97006C4.79503 8.24004 3.67874 10.0133 3.22297 12C3.67707 13.9883 4.79264 15.7635 6.38711 17.0352C7.98158 18.3069 9.9605 18.9996 12 19ZM12 16.5C10.8065 16.5 9.6619 16.0259 8.81799 15.182C7.97408 14.3381 7.49997 13.1935 7.49997 12C7.49997 10.8066 7.97408 9.66197 8.81799 8.81805C9.6619 7.97414 10.8065 7.50003 12 7.50003C13.1934 7.50003 14.338 7.97414 15.182 8.81805C16.0259 9.66197 16.5 10.8066 16.5 12C16.5 13.1935 16.0259 14.3381 15.182 15.182C14.338 16.0259 13.1934 16.5 12 16.5ZM12 14.5C12.663 14.5 13.2989 14.2366 13.7677 13.7678C14.2366 13.299 14.5 12.6631 14.5 12C14.5 11.337 14.2366 10.7011 13.7677 10.2323C13.2989 9.76343 12.663 9.50003 12 9.50003C11.3369 9.50003 10.701 9.76343 10.2322 10.2323C9.76336 10.7011 9.49997 11.337 9.49997 12C9.49997 12.6631 9.76336 13.299 10.2322 13.7678C10.701 14.2366 11.3369 14.5 12 14.5Z" fill="white"/>
</g>
<defs>
<clipPath id="clip0_4_143">
<rect width="24" height="24" fill="white"/>
</clipPath>
</defs>
</svg>
